inDegrees=no
DataType=double
version=3
OpenSimVersion=4.4-2022-10-11-798caa840
endheader
time	elv_angle	shoulder_elv	shoulder_rot	elbow_flexion	pro_sup	deviation	flexion
2.4020851434	0.3312713719	0.6805167939	0.3487067073	2.0066797109	0.0000000000	0.0000000000	0.0000000000
2.4062554301	0.3313129993	0.6805365121	0.3487505256	2.0067344838	0.0000000000	0.0000000000	0.0000000000
2.4104257168	0.3313511759	0.6805545958	0.3487907115	2.0067847162	0.0000000000	0.0000000000	0.0000000000
2.4145960035	0.3313860363	0.6805711086	0.3488274066	2.0068305851	0.0000000000	0.0000000000	0.0000000000
2.4187662902	0.3314177169	0.6805861152	0.3488607547	2.0068722701	0.0000000000	0.0000000000	0.0000000000
2.4229365769	0.3314463565	0.6805996813	0.3488909016	2.0069099538	0.0000000000	0.0000000000	0.0000000000
2.4271068636	0.3314720957	0.6806118735	0.3489179954	2.0069438211	0.0000000000	0.0000000000	0.0000000000
2.4312771503	0.3314950773	0.6806227596	0.3489421866	2.0069740600	0.0000000000	0.0000000000	0.0000000000
2.4354474370	0.3315154462	0.6806324080	0.3489636276	2.0070008613	0.0000000000	0.0000000000	0.0000000000
2.4396177237	0.3315333495	0.6806408885	0.3489824731	2.0070244182	0.0000000000	0.0000000000	0.0000000000
2.4437880104	0.3315489363	0.6806482717	0.3489988803	2.0070449272	0.0000000000	0.0000000000	0.0000000000
2.4479582971	0.3315623579	0.6806546293	0.3490130083	2.0070625872	0.0000000000	0.0000000000	0.0000000000
2.4521285838	0.3315737678	0.6806600340	0.3490250187	2.0070776002	0.0000000000	0.0000000000	0.0000000000
2.4562988705	0.3315833215	0.6806645594	0.3490350752	2.0070901708	0.0000000000	0.0000000000	0.0000000000
2.4604691573	0.3315911767	0.6806682804	0.3490433439	2.0071005067	0.0000000000	0.0000000000	0.0000000000
2.4646394440	0.3315974935	0.6806712725	0.3490499932	2.0071088183	0.0000000000	0.0000000000	0.0000000000
2.4688097307	0.3316024339	0.6806736127	0.3490551936	2.0071153188	0.0000000000	0.0000000000	0.0000000000
2.4729800174	0.3316061623	0.6806753788	0.3490591182	2.0071202245	0.0000000000	0.0000000000	0.0000000000
2.4771503041	0.3316088450	0.6806766496	0.3490619421	2.0071237544	0.0000000000	0.0000000000	0.0000000000
2.4813205908	0.3316106509	0.6806775050	0.3490638430	2.0071261306	0.0000000000	0.0000000000	0.0000000000
2.4854908775	0.3316117508	0.6806780260	0.3490650009	2.0071275779	0.0000000000	0.0000000000	0.0000000000
2.4896611642	0.3316123180	0.6806782947	0.3490655979	2.0071283242	0.0000000000	0.0000000000	0.0000000000
2.4938314509	0.3316125278	0.6806783940	0.3490658187	2.0071286002	0.0000000000	0.0000000000	0.0000000000
2.4980017376	0.3316125579	0.6806784083	0.3490658504	2.0071286398	0.0000000000	0.0000000000	0.0000000000
2.5021720243	0.3316125579	0.6806784083	0.3490658504	2.0071286398	0.0000000000	0.0000000000	0.0000000000
2.5063423110	0.3316125579	0.6806784083	0.3490658504	2.0071286398	0.0000000000	0.0000000000	0.0000000000
2.5105125977	0.3316125579	0.6806784083	0.3490658504	2.0071286398	0.0000000000	0.0000000000	0.0000000000
2.5146828844	0.3316125579	0.6806784083	0.3490658504	2.0071286398	0.0000000000	0.0000000000	0.0000000000
2.5188531712	0.3316125579	0.6806784083	0.3490658504	2.0071286398	0.0000000000	0.0000000000	0.0000000000
2.5230234579	0.3316125579	0.6806784083	0.3490658504	2.0071286398	0.0000000000	0.0000000000	0.0000000000
2.5271937446	0.3316125579	0.6806784083	0.3490658504	2.0071286398	0.0000000000	0.0000000000	0.0000000000
2.5313640313	0.3316125579	0.6806784083	0.3490658504	2.0071286398	0.0000000000	0.0000000000	0.0000000000
2.5355343180	0.3316125579	0.6806784083	0.3490658504	2.0071286398	0.0000000000	0.0000000000	0.0000000000
2.5397046047	0.3316125579	0.6806784083	0.3490658504	2.0071286398	0.0000000000	0.0000000000	0.0000000000
2.5438748914	0.3316125579	0.6806784083	0.3490658504	2.0071286398	0.0000000000	0.0000000000	0.0000000000
2.5480451781	0.3316125579	0.6806784083	0.3490658504	2.0071286398	0.0000000000	0.0000000000	0.0000000000
2.5522154648	0.3316125579	0.6806784083	0.3490658504	2.0071286398	0.0000000000	0.0000000000	0.0000000000
2.5563857515	0.3316125579	0.6806784083	0.3490658504	2.0071286398	0.0000000000	0.0000000000	0.0000000000
2.5605560382	0.3316125579	0.6806784083	0.3490658504	2.0071286398	0.0000000000	0.0000000000	0.0000000000
2.5647263249	0.3316125579	0.6806784083	0.3490658504	2.0071286398	0.0000000000	0.0000000000	0.0000000000
2.5688966116	0.3316125579	0.6806784083	0.3490658504	2.0071286398	0.0000000000	0.0000000000	0.0000000000
2.5730668983	0.3316125579	0.6806784083	0.3490658504	2.0071286398	0.0000000000	0.0000000000	0.0000000000
2.5772371851	0.3316125579	0.6806784083	0.3490658504	2.0071286398	0.0000000000	0.0000000000	0.0000000000
2.5814074718	0.3316125579	0.6806784083	0.3490658504	2.0071286398	0.0000000000	0.0000000000	0.0000000000
2.5855777585	0.3316125579	0.6806784083	0.3490658504	2.0071286398	0.0000000000	0.0000000000	0.0000000000
2.5897480452	0.3316125579	0.6806784083	0.3490658504	2.0071286398	0.0000000000	0.0000000000	0.0000000000
2.5939183319	0.3316125579	0.6806784083	0.3490658504	2.0071286398	0.0000000000	0.0000000000	0.0000000000
2.5980886186	0.3316125579	0.6806784083	0.3490658504	2.0071286398	0.0000000000	0.0000000000	0.0000000000
2.6022589053	0.3316125579	0.6806784083	0.3490658504	2.0071286398	0.0000000000	0.0000000000	0.0000000000
2.6064291920	0.3316125579	0.6806784083	0.3490658504	2.0071286398	0.0000000000	0.0000000000	0.0000000000
2.6105994787	0.3316125579	0.6806784083	0.3490658504	2.0071286398	0.0000000000	0.0000000000	0.0000000000
2.6147697654	0.3316125579	0.6806784083	0.3490658504	2.0071286398	0.0000000000	0.0000000000	0.0000000000
2.6189400521	0.3316125579	0.6806784083	0.3490658504	2.0071286398	0.0000000000	0.0000000000	0.0000000000
2.6231103388	0.3316125579	0.6806784083	0.3490658504	2.0071286398	0.0000000000	0.0000000000	0.0000000000
2.6272806255	0.3316125579	0.6806784083	0.3490658504	2.0071286398	0.0000000000	0.0000000000	0.0000000000
2.6314509123	0.3316125579	0.6806784083	0.3490658504	2.0071286398	0.0000000000	0.0000000000	0.0000000000
2.6356211990	0.3316125579	0.6806784083	0.3490658504	2.0071286398	0.0000000000	0.0000000000	0.0000000000
2.6397914857	0.3316125579	0.6806784083	0.3490658504	2.0071286398	0.0000000000	0.0000000000	0.0000000000
2.6439617724	0.3316125579	0.6806784083	0.3490658504	2.0071286398	0.0000000000	0.0000000000	0.0000000000
2.6481320591	0.3316125579	0.6806784083	0.3490658504	2.0071286398	0.0000000000	0.0000000000	0.0000000000
2.6523023458	0.3316125579	0.6806784083	0.3490658504	2.0071286398	0.0000000000	0.0000000000	0.0000000000
2.6564726325	0.3316125579	0.6806784083	0.3490658504	2.0071286398	0.0000000000	0.0000000000	0.0000000000
2.6606429192	0.3316125579	0.6806784083	0.3490658504	2.0071286398	0.0000000000	0.0000000000	0.0000000000
2.6648132059	0.3316125579	0.6806784083	0.3490658504	2.0071286398	0.0000000000	0.0000000000	0.0000000000
2.6689834926	0.3316125579	0.6806784083	0.3490658504	2.0071286398	0.0000000000	0.0000000000	0.0000000000
2.6731537793	0.3316125579	0.6806784083	0.3490658504	2.0071286398	0.0000000000	0.0000000000	0.0000000000
2.6773240660	0.3316125579	0.6806784083	0.3490658504	2.0071286398	0.0000000000	0.0000000000	0.0000000000
2.6814943527	0.3316125579	0.6806784083	0.3490658504	2.0071286398	0.0000000000	0.0000000000	0.0000000000
2.6856646394	0.3316125579	0.6806784083	0.3490658504	2.0071286398	0.0000000000	0.0000000000	0.0000000000
2.6898349262	0.3316125579	0.6806784083	0.3490658504	2.0071286398	0.0000000000	0.0000000000	0.0000000000
2.6940052129	0.3316125579	0.6806784083	0.3490658504	2.0071286398	0.0000000000	0.0000000000	0.0000000000
2.6981754996	0.3316125579	0.6806784083	0.3490658504	2.0071286398	0.0000000000	0.0000000000	0.0000000000
2.7023457863	0.3316125579	0.6806784083	0.3490658504	2.0071286398	0.0000000000	0.0000000000	0.0000000000
2.7065160730	0.3316125579	0.6806784083	0.3490658504	2.0071286398	0.0000000000	0.0000000000	0.0000000000
2.7106863597	0.3316125579	0.6806784083	0.3490658504	2.0071286398	0.0000000000	0.0000000000	0.0000000000
2.7148566464	0.3316125579	0.6806784083	0.3490658504	2.0071286398	0.0000000000	0.0000000000	0.0000000000
2.7190269331	0.3316125579	0.6806784083	0.3490658504	2.0071286398	0.0000000000	0.0000000000	0.0000000000
2.7231972198	0.3316125579	0.6806784083	0.3490658504	2.0071286398	0.0000000000	0.0000000000	0.0000000000
2.7273675065	0.3316125579	0.6806784083	0.3490658504	2.0071286398	0.0000000000	0.0000000000	0.0000000000
2.7315377932	0.3316125579	0.6806784083	0.3490658504	2.0071286398	0.0000000000	0.0000000000	0.0000000000
2.7357080799	0.3316125579	0.6806784083	0.3490658504	2.0071286398	0.0000000000	0.0000000000	0.0000000000
2.7398783666	0.3316125579	0.6806784083	0.3490658504	2.0071286398	0.0000000000	0.0000000000	0.0000000000
2.7440486533	0.3316125579	0.6806784083	0.3490658504	2.0071286398	0.0000000000	0.0000000000	0.0000000000
2.7482189401	0.3316125579	0.6806784083	0.3490658504	2.0071286398	0.0000000000	0.0000000000	0.0000000000
2.7523892268	0.3316125579	0.6806784083	0.3490658504	2.0071286398	0.0000000000	0.0000000000	0.0000000000
2.7565595135	0.3316125579	0.6806784083	0.3490658504	2.0071286398	0.0000000000	0.0000000000	0.0000000000
